<?xml version="1.0" encoding="UTF-8"?>
<svg width="47px" height="47px" viewBox="0 0 47 47" version="1.1" xmlns="http://www.w3.org/2000/svg" xmlns:xlink="http://www.w3.org/1999/xlink">
    <!-- Generator: Sketch 46 (44423) - http://www.bohemiancoding.com/sketch -->
    <title>iStock-542098408</title>
    <desc>Created with Sketch.</desc>
    <defs></defs>
    <g id="Page-1" stroke="none" stroke-width="1" fill="none" fill-rule="evenodd">
        <g id="iStock-542098408" fill="#FFFFFF">
            <path d="M38.266233,36.759915 L36.1919983,34.6856803 C37.7047109,34.9518537 39.2577891,35.017398 40.792483,34.875119 C41.9734779,34.7656122 43.143682,34.5362075 44.2811139,34.1861054 C44.2994983,34.3719473 44.2994983,34.5617857 44.2811139,34.7476276 C44.2191667,35.5093793 43.9094303,36.2495493 43.3479082,36.8402466 C42.101369,38.1451361 40.0559099,38.2582398 38.6706888,37.0988265 L38.6742857,37.0952296 C38.5288095,37.0005102 38.3937245,36.8874065 38.266233,36.759915" id="Fill-3"></path>
            <path d="M36.7667092,38.2594388 L34.6924745,36.1852041 C34.9582483,37.6979167 35.0241922,39.2509949 34.8819133,40.7856888 C34.7724065,41.9670833 34.5430017,43.1372874 34.1928997,44.2747194 C34.3787415,44.2927041 34.5681803,44.2927041 34.7544218,44.2747194 C35.5161735,44.2127721 36.2563435,43.9026361 36.8466412,43.3411139 C38.1519303,42.0945748 38.265034,40.0495153 37.1056207,38.6642942 L37.1020238,38.6678912 C37.0073044,38.5220153 36.8942007,38.3869303 36.7667092,38.2594388" id="Fill-4"></path>
            <path d="M36.7667092,8.72697279 L34.6924745,10.8016071 C34.9582483,9.2884949 35.0241922,7.73541667 34.8819133,6.20072279 C34.7724065,5.01972789 34.5430017,3.84952381 34.1928997,2.71209184 C34.3787415,2.69370748 34.5681803,2.69370748 34.7544218,2.71209184 C35.5161735,2.77403912 36.2563435,3.08377551 36.8466412,3.64529762 C38.1519303,4.89223639 38.265034,6.93729592 37.1056207,8.32251701 L37.1020238,8.31892007 C37.0073044,8.46479592 36.8942007,8.59948129 36.7667092,8.72697279" id="Fill-5"></path>
            <path d="M38.266233,10.2268963 L36.1919983,12.301131 C37.7047109,12.0349575 39.2577891,11.9694133 40.792483,12.1112925 C41.9734779,12.2207993 43.143682,12.4506037 44.2811139,12.8003061 C44.2994983,12.6144643 44.2994983,12.4250255 44.2811139,12.2391837 C44.2191667,11.4770323 43.9094303,10.7372619 43.3479082,10.1465646 C42.101369,8.84127551 40.0559099,8.72857143 38.6706888,9.88758503 L38.6742857,9.89118197 C38.5288095,9.98630102 38.3937245,10.0990051 38.266233,10.2268963" id="Fill-6"></path>
            <path d="M8.73376701,10.2268963 L10.8080017,12.301131 C9.29528912,12.0349575 7.74221088,11.9694133 6.20751701,12.1112925 C5.02652211,12.2207993 3.85631803,12.4506037 2.71888605,12.8003061 C2.7005017,12.6144643 2.7005017,12.4250255 2.71888605,12.2391837 C2.78083333,11.4770323 3.09056973,10.7372619 3.65209184,10.1465646 C4.89863095,8.84127551 6.94409014,8.72857143 8.32931122,9.88758503 L8.32571429,9.89118197 C8.47119048,9.98630102 8.60627551,10.0990051 8.73376701,10.2268963" id="Fill-7"></path>
            <path d="M10.2332908,8.72697279 L12.3075255,10.8016071 C12.0417517,9.2884949 11.9758078,7.73541667 12.1180867,6.20072279 C12.2275935,5.01972789 12.4569983,3.84952381 12.8071003,2.71209184 C12.6212585,2.69370748 12.4318197,2.69370748 12.2455782,2.71209184 C11.4838265,2.77403912 10.7436565,3.08377551 10.1533588,3.64529762 C8.84806973,4.89223639 8.73496599,6.93729592 9.89437925,8.32251701 L9.89797619,8.31892007 C9.99269558,8.46479592 10.1057993,8.59948129 10.2332908,8.72697279" id="Fill-8"></path>
            <path d="M10.2332908,38.2594388 L12.3075255,36.1852041 C12.0417517,37.6979167 11.9758078,39.2509949 12.1180867,40.7856888 C12.2275935,41.9670833 12.4569983,43.1372874 12.8071003,44.2747194 C12.6212585,44.2927041 12.4318197,44.2927041 12.2455782,44.2747194 C11.4838265,44.2127721 10.7436565,43.9026361 10.1533588,43.3411139 C8.84806973,42.0945748 8.73496599,40.0495153 9.89437925,38.6642942 L9.89797619,38.6678912 C9.99269558,38.5220153 10.1057993,38.3869303 10.2332908,38.2594388" id="Fill-9"></path>
            <path d="M8.73376701,36.759915 L10.8080017,34.6856803 C9.29528912,34.9518537 7.74221088,35.017398 6.20751701,34.875119 C5.02652211,34.7656122 3.85631803,34.5362075 2.71888605,34.1861054 C2.7005017,34.3719473 2.7005017,34.5617857 2.71888605,34.7476276 C2.78083333,35.5093793 3.09056973,36.2495493 3.65209184,36.8402466 C4.89863095,38.1451361 6.94409014,38.2582398 8.32931122,37.0988265 L8.32571429,37.0952296 C8.47119048,37.0005102 8.60627551,36.8874065 8.73376701,36.759915" id="Fill-10"></path>
            <path d="M26.2996173,38.8765136 C26.7600255,39.8800595 27.3667092,40.8284524 28.1148724,41.6769303 C29.058869,42.7580102 30.1855102,43.6380612 31.4304507,44.295102 L31.4304507,41.7636565 C31.4304507,38.4157058 28.7167602,35.7020153 25.3692092,35.7020153 C25.5242772,36.7966837 25.8388095,37.8685714 26.2996173,38.8765136" id="Fill-11"></path>
            <path d="M21.5744388,35.7020153 C18.2268878,35.7020153 15.5131973,38.4157058 15.5131973,41.7636565 L15.5131973,44.295102 C16.7581378,43.6380612 17.8847789,42.7580102 18.8287755,41.6769303 C19.5769388,40.8284524 20.1836224,39.8800595 20.6440306,38.8765136 C21.1048384,37.8685714 21.4193707,36.7966837 21.5744388,35.7020153" id="Fill-12"></path>
            <path d="M24.5602976,43.3155357 L24.5602976,40.3820323 C25.4419473,41.6397619 26.493852,42.7843878 27.6796429,43.7691497 C28.5920663,44.5269048 29.5820238,45.1919388 30.6335289,45.7490646 C30.5148299,45.8933418 30.3809439,46.0272279 30.2366667,46.1459269 C29.6539626,46.6407058 28.9117942,46.9448469 28.0968878,46.9656293 C26.2928231,47.0067942 24.7665221,45.6407568 24.6066582,43.8414881 L24.6118537,43.8414881 C24.5758844,43.671233 24.5602976,43.4957823 24.5602976,43.3155357" id="Fill-13"></path>
            <path d="M22.4397024,43.3155357 L22.4397024,40.3820323 C21.5580527,41.6397619 20.506148,42.7843878 19.3203571,43.7691497 C18.4079337,44.5269048 17.4179762,45.1919388 16.3664711,45.7490646 C16.4851701,45.8933418 16.6190561,46.0272279 16.7633333,46.1459269 C17.3460374,46.6407058 18.0882058,46.9448469 18.9031122,46.9656293 C20.7075765,47.0067942 22.2334779,45.6407568 22.3933418,43.8414881 L22.3881463,43.8414881 C22.4241156,43.671233 22.4397024,43.4957823 22.4397024,43.3155357" id="Fill-14"></path>
            <path d="M35.7088095,25.418767 C35.7088095,28.766318 38.4225,31.4804082 41.7704507,31.4804082 L44.3014966,31.4804082 C43.6448554,30.235068 42.7644048,29.1084269 41.6837245,28.1644303 C40.8352466,27.416267 39.8864541,26.8095833 38.8833078,26.3491752 C37.8753656,25.8883673 36.8034779,25.573835 35.7088095,25.418767" id="Fill-15"></path>
            <path d="M43.3223299,22.4329082 L40.3888265,22.4329082 C41.6465561,21.5512585 42.791182,20.4997534 43.7759439,19.3139626 C44.533699,18.4011395 45.198733,17.4115816 45.7554592,16.3596769 C45.8997364,16.4783759 46.0340221,16.6122619 46.1527211,16.7565391 C46.6475,17.3392432 46.9516412,18.0818112 46.9724235,18.896318 C47.0135884,20.7007823 45.6471514,22.2266837 43.8478827,22.3865476 L43.8478827,22.381352 C43.6780272,22.4173214 43.5025765,22.4329082 43.3223299,22.4329082" id="Fill-16"></path>
            <path d="M43.3223299,24.5535034 L40.3888265,24.5535034 C41.6465561,25.4351531 42.791182,26.4870578 43.7759439,27.6728486 C44.533699,28.5852721 45.198733,29.5752296 45.7554592,30.6267347 C45.8997364,30.5084354 46.0340221,30.3741497 46.1527211,30.2298724 C46.6475,29.6471684 46.9516412,28.905 46.9724235,28.0904932 C47.0135884,26.2860289 45.6471514,24.7597279 43.8478827,24.6002636 L43.8478827,24.6050595 C43.6780272,24.5690901 43.5025765,24.5535034 43.3223299,24.5535034" id="Fill-17"></path>
            <path d="M20.7003827,8.11029762 C20.2399745,7.1067517 19.6332908,6.15795918 18.8851276,5.30948129 C17.941131,4.22880102 16.8144898,3.34835034 15.5695493,2.69170918 L15.5695493,5.22315476 C15.5695493,8.57070578 18.2832398,11.2843963 21.6307908,11.2843963 C21.4757228,10.1901276 21.1611905,9.1182398 20.7003827,8.11029762" id="Fill-18"></path>
            <path d="M25.4255612,11.2843963 C28.7731122,11.2843963 31.4868027,8.57070578 31.4868027,5.22315476 L31.4868027,2.69170918 C30.2418622,3.34835034 29.1152211,4.22880102 28.1712245,5.30948129 C27.4230612,6.15795918 26.8163776,7.1067517 26.3559694,8.11029762 C25.8951616,9.1182398 25.5806293,10.1901276 25.4255612,11.2843963" id="Fill-19"></path>
            <path d="M22.4397024,3.67127551 L22.4397024,6.60477891 C21.5580527,5.34664966 20.506148,4.20202381 19.3203571,3.2172619 C18.4079337,2.4595068 17.4179762,1.79447279 16.3664711,1.2377466 C16.4851701,1.09346939 16.6190561,0.959583333 16.7633333,0.840884354 C17.3460374,0.345705782 18.0882058,0.0415646259 18.9031122,0.0211819728 C20.7075765,-0.0203826531 22.2334779,1.34605442 22.3933418,3.14532313 L22.3881463,3.14532313 C22.4241156,3.31557823 22.4397024,3.49062925 22.4397024,3.67127551" id="Fill-20"></path>
            <path d="M24.5602976,3.67127551 L24.5602976,6.60477891 C25.4419473,5.34664966 26.493852,4.20202381 27.6796429,3.2172619 C28.5920663,2.4595068 29.5820238,1.79447279 30.6335289,1.2377466 C30.5148299,1.09346939 30.3809439,0.959583333 30.2366667,0.840884354 C29.6539626,0.345705782 28.9117942,0.0415646259 28.0968878,0.0211819728 C26.2928231,-0.0203826531 24.7665221,1.34605442 24.6066582,3.14532313 L24.6118537,3.14532313 C24.5758844,3.31557823 24.5602976,3.49062925 24.5602976,3.67127551" id="Fill-21"></path>
            <path d="M8.11669218,26.2928231 C7.11354592,26.753631 6.1647534,27.359915 5.31627551,28.1080782 C4.23559524,29.0520748 3.35514456,30.178716 2.6985034,31.4240561 L5.22954932,31.4240561 C8.5775,31.4240561 11.2911905,28.709966 11.2911905,25.362415 C10.1965221,25.517483 9.12463435,25.8320153 8.11669218,26.2928231" id="Fill-22"></path>
            <path d="M11.2911905,21.5680442 C11.2911905,18.2200935 8.5775,15.5064031 5.22954932,15.5064031 L2.6985034,15.5064031 C3.35514456,16.7513435 4.23559524,17.8779847 5.31627551,18.822381 C6.1647534,19.5701446 7.11354592,20.1768282 8.11669218,20.6376361 C9.12463435,21.0980442 10.1965221,21.4129762 11.2911905,21.5680442" id="Fill-23"></path>
            <path d="M3.67767007,24.5535034 L6.61117347,24.5535034 C5.35344388,25.4351531 4.20881803,26.4870578 3.22405612,27.6728486 C2.46630102,28.5852721 1.80126701,29.5752296 1.24454082,30.6267347 C1.10026361,30.5084354 0.965977891,30.3741497 0.847278912,30.2298724 C0.3525,29.6471684 0.0483588435,28.905 0.0275765306,28.0904932 C-0.0135884354,26.2860289 1.35284864,24.7597279 3.15211735,24.6002636 L3.15211735,24.6050595 C3.32197279,24.5690901 3.49742347,24.5535034 3.67767007,24.5535034" id="Fill-24"></path>
            <path d="M3.67767007,22.4329082 L6.61117347,22.4329082 C5.35344388,21.5512585 4.20881803,20.4997534 3.22405612,19.3139626 C2.46630102,18.4011395 1.80126701,17.4115816 1.24454082,16.3596769 C1.10026361,16.4783759 0.965977891,16.6122619 0.847278912,16.7565391 C0.3525,17.3392432 0.0483588435,18.0818112 0.0275765306,18.896318 C-0.0135884354,20.7007823 1.35284864,22.2266837 3.15211735,22.3865476 L3.15211735,22.381352 C3.32197279,22.4173214 3.49742347,22.4329082 3.67767007,22.4329082" id="Fill-25"></path>
            <path d="M38.8833078,20.6939881 C39.8864541,20.2331803 40.8352466,19.6264966 41.6837245,18.8783333 C42.7644048,17.9343367 43.6448554,16.8076956 44.3014966,15.5627551 L41.7704507,15.5627551 C38.4225,15.5627551 35.7088095,18.2764456 35.7088095,21.6243963 C36.8034779,21.4693282 37.8753656,21.1543963 38.8833078,20.6939881" id="Fill-26"></path>
        </g>
    </g>
</svg>