<?xml version="1.0" encoding="UTF-8" standalone="no"?><!DOCTYPE svg PUBLIC "-//W3C//DTD SVG 1.1//EN" "http://www.w3.org/Graphics/SVG/1.1/DTD/svg11.dtd"><svg width="100%" height="100%" viewBox="0 0 80 53" version="1.1" xmlns="http://www.w3.org/2000/svg" xmlns:xlink="http://www.w3.org/1999/xlink" xml:space="preserve" style="fill-rule:evenodd;clip-rule:evenodd;stroke-linejoin:round;stroke-miterlimit:1.41421;"><g><path d="M64.611,40.752c-0.516,0 -1.026,-0.234 -1.359,-0.678l-10.175,-13.538c-2.416,-3.215 -5.946,-5.297 -9.94,-5.864c-3.995,-0.566 -7.965,0.452 -11.18,2.869c-0.75,0.564 -1.816,0.413 -2.38,-0.338c-0.563,-0.75 -0.412,-1.815 0.338,-2.379c1.991,-1.497 4.219,-2.559 6.622,-3.156c2.319,-0.577 4.7,-0.698 7.077,-0.361c2.377,0.337 4.63,1.116 6.697,2.315c2.142,1.242 3.987,2.881 5.483,4.872l10.175,13.538c0.563,0.75 0.412,1.815 -0.338,2.379c-0.306,0.23 -0.664,0.341 -1.02,0.341Z" style="fill:#fff;fill-rule:nonzero;"/><path d="M71.457,35.607c-0.517,0 -1.026,-0.234 -1.36,-0.678l-10.174,-13.537c-7.834,-10.424 -22.687,-12.53 -33.111,-4.696c-0.75,0.563 -1.815,0.412 -2.379,-0.338c-0.564,-0.75 -0.413,-1.815 0.337,-2.379c11.922,-8.96 28.91,-6.551 37.87,5.371l10.174,13.537c0.564,0.75 0.413,1.815 -0.338,2.379c-0.306,0.23 -0.664,0.341 -1.019,0.341Z" style="fill:#fff;fill-rule:nonzero;"/><path d="M78.302,30.463c-0.516,0 -1.026,-0.234 -1.36,-0.679l-10.174,-13.537c-5.161,-6.866 -12.699,-11.314 -21.228,-12.523c-8.528,-1.21 -17.006,0.966 -23.872,6.126c-0.751,0.564 -1.816,0.413 -2.38,-0.337c-0.564,-0.75 -0.413,-1.816 0.338,-2.38c3.836,-2.883 8.127,-4.928 12.755,-6.079c4.467,-1.111 9.055,-1.345 13.636,-0.695c4.581,0.649 8.923,2.15 12.906,4.459c4.125,2.392 7.678,5.551 10.562,9.387l10.174,13.537c0.564,0.751 0.413,1.816 -0.338,2.38c-0.305,0.23 -0.664,0.341 -1.019,0.341Z" style="fill:#fff;fill-rule:nonzero;"/><path d="M39.003,35.071c-5.618,0 -11.17,-2.545 -14.797,-7.372l-10.174,-13.537c-0.564,-0.75 -0.413,-1.815 0.337,-2.379c0.75,-0.564 1.816,-0.413 2.379,0.337l10.175,13.537c4.997,6.649 14.471,7.993 21.12,2.996c0.75,-0.564 1.816,-0.413 2.38,0.337c0.563,0.751 0.412,1.816 -0.338,2.38c-3.321,2.496 -7.217,3.701 -11.082,3.701Z" style="fill:#fff;fill-rule:nonzero;"/><path d="M39.024,43.633c-1.277,0 -2.559,-0.09 -3.84,-0.272c-3.479,-0.494 -6.776,-1.633 -9.801,-3.387c-3.133,-1.817 -5.833,-4.216 -8.022,-7.13l-10.175,-13.537c-0.564,-0.75 -0.413,-1.816 0.338,-2.38c0.75,-0.563 1.815,-0.412 2.379,0.338l10.174,13.537c7.834,10.423 22.687,12.53 33.111,4.696c0.75,-0.564 1.815,-0.413 2.379,0.338c0.564,0.75 0.413,1.815 -0.337,2.379c-2.914,2.19 -6.174,3.744 -9.689,4.618c-2.144,0.533 -4.324,0.8 -6.517,0.8Z" style="fill:#fff;fill-rule:nonzero;"/><path d="M39.024,52.19c-10.823,0 -21.52,-4.903 -28.509,-14.201l-10.174,-13.537c-0.564,-0.751 -0.413,-1.816 0.337,-2.38c0.751,-0.564 1.816,-0.413 2.38,0.338l10.174,13.537c10.671,14.198 30.903,17.067 45.1,6.396c0.751,-0.563 1.816,-0.412 2.38,0.338c0.564,0.75 0.413,1.816 -0.338,2.379c-6.397,4.809 -13.904,7.13 -21.35,7.13Z" style="fill:#fff;fill-rule:nonzero;"/></g></svg>